<svg width="341" height="76" viewBox="0 0 341 76" fill="none" xmlns="http://www.w3.org/2000/svg">
<path d="M51.61 33.3906L47.42 34.3006C49.6847 41.1015 49.2479 48.5128 46.2 55.0006C41.1 65.8106 29.06 66.7306 19.92 64.6706C10.78 62.6106 6.29004 50.8306 6.29004 50.8306C6.74004 64.0906 10.55 69.5006 10.55 69.5006L15.2 67.2906C20.84 70.4106 36.38 73.2306 47.42 61.2906C58.46 49.3506 51.61 33.3906 51.61 33.3906Z" fill="white"/>
<path d="M10.92 37.3092C9.5915 40.5207 9.24462 44.0538 9.92324 47.4623C10.6019 50.8708 12.2755 54.0017 14.7328 56.4594C17.19 58.9171 20.3206 60.5913 23.729 61.2705C27.1373 61.9498 30.6705 61.6035 33.8822 60.2756C37.0939 58.9476 39.8399 56.6975 41.7733 53.8096C43.7067 50.9216 44.7408 47.5254 44.7448 44.05C44.7489 40.5746 43.7227 37.176 41.7961 34.2836C39.8694 31.3911 37.1286 29.1347 33.92 27.7992L33.3 27.5792L50.52 23.1992L45.35 9.19922L10.13 28.1992L6.29004 34.3992L13.91 32.4592C12.6583 33.904 11.6486 35.5419 10.92 37.3092ZM21 43.9992C21 43.0103 21.2933 42.0436 21.8427 41.2214C22.3921 40.3991 23.173 39.7583 24.0866 39.3798C25.0003 39.0014 26.0056 38.9024 26.9755 39.0953C27.9454 39.2882 28.8363 39.7644 29.5356 40.4637C30.2348 41.1629 30.711 42.0539 30.904 43.0238C31.0969 43.9937 30.9979 44.999 30.6194 45.9126C30.241 46.8263 29.6001 47.6072 28.7779 48.1566C27.9556 48.706 26.9889 48.9992 26 48.9992C24.674 48.9992 23.4022 48.4724 22.4645 47.5348C21.5268 46.5971 21 45.3253 21 43.9992ZM39.42 43.9992C39.4253 45.532 39.1278 47.0507 38.5446 48.4683C37.9613 49.8858 37.1039 51.1741 36.0214 52.2594C34.9389 53.3446 33.6528 54.2054 32.2368 54.7922C30.8208 55.3791 29.3028 55.6805 27.77 55.6792C27.0075 55.6795 26.247 55.6024 25.5 55.4492C28.1428 54.9278 30.5226 53.5051 32.2331 51.4241C33.9436 49.3431 34.8786 46.7329 34.8786 44.0392C34.8786 41.3455 33.9436 38.7353 32.2331 36.6543C30.5226 34.5734 28.1428 33.1507 25.5 32.6292C26.248 32.4843 27.0081 32.4106 27.77 32.4092C30.8485 32.4092 33.8016 33.6287 35.9831 35.8008C38.1646 37.9729 39.3968 40.9208 39.41 43.9992H39.42Z" fill="white"/>
<path d="M27.5899 10.23L21.2899 13.62L24.6599 8.59L20.0299 6L10.1299 24.03L31.5499 12.44L27.5899 10.23Z" fill="white"/>
<path d="M68.0001 32.9982C66.7563 32.3387 65.7183 31.3491 65.0001 30.1382C64.2444 28.8587 63.8601 27.394 63.8901 25.9082C63.8534 24.4059 64.2379 22.9233 65.0001 21.6282C65.7116 20.407 66.7508 19.4093 68.0001 18.7482C69.3282 18.0631 70.806 17.7194 72.3001 17.7482C73.7851 17.7154 75.2541 18.0595 76.5701 18.7482C77.8162 19.4136 78.8544 20.4103 79.5701 21.6282C80.3173 22.9145 80.6977 24.3809 80.6701 25.8682C80.6964 27.3522 80.316 28.8151 79.5701 30.0982C78.8479 31.3059 77.8109 32.2945 76.5701 32.9582C75.2541 33.647 73.7851 33.991 72.3001 33.9582C70.8094 33.9994 69.3318 33.6695 68.0001 32.9982ZM74.2001 29.1982C74.7586 28.8964 75.2198 28.4421 75.5301 27.8882C75.8652 27.2758 76.0341 26.5862 76.0201 25.8882C76.0503 25.3858 75.9772 24.8826 75.8052 24.4096C75.6332 23.9366 75.366 23.5039 75.0201 23.1382C74.6707 22.8044 74.2579 22.544 73.8062 22.3723C73.3545 22.2005 72.873 22.1209 72.3901 22.1382C71.8902 22.1165 71.3913 22.1997 70.9255 22.3827C70.4598 22.5656 70.0375 22.8441 69.6861 23.2003C69.3346 23.5565 69.0617 23.9824 68.885 24.4505C68.7083 24.9187 68.6317 25.4187 68.6601 25.9182C68.6511 26.6157 68.8197 27.3039 69.1501 27.9182C69.4639 28.4728 69.9286 28.927 70.4901 29.2282C71.0741 29.5404 71.728 29.6987 72.3901 29.6882C73.0251 29.68 73.6477 29.5114 74.2001 29.1982Z" fill="white"/>
<path d="M82.74 18.0586H87.52L89.68 26.2186L91.76 18.0586H95.1L97 26.2486L99.14 18.0586H103.94L99.79 33.6586H95.46L93.34 25.3786L91.22 33.6586H86.89L82.74 18.0586Z" fill="white"/>
<path d="M106.39 18.0586H111V29.7686H117.3V33.6586H106.39V18.0586Z" fill="white"/>
<path d="M127.57 18.0615H133.35C134.908 18.0246 136.453 18.3426 137.87 18.9915C139.115 19.5707 140.159 20.5071 140.87 21.6815C141.598 22.9228 141.965 24.3428 141.93 25.7815C142.007 26.87 141.842 27.9621 141.446 28.979C141.05 29.9958 140.433 30.912 139.64 31.6615C137.849 33.0784 135.6 33.79 133.32 33.6615H127.58L127.57 18.0615ZM133.64 29.7715C134.134 29.8031 134.628 29.7234 135.087 29.5382C135.546 29.353 135.957 29.067 136.29 28.7015C136.948 27.8754 137.279 26.836 137.22 25.7815C137.252 24.7809 136.918 23.8031 136.28 23.0315C135.961 22.668 135.565 22.3812 135.12 22.1925C134.675 22.0037 134.193 21.9179 133.71 21.9415H132.19V29.7715H133.64Z" fill="white"/>
<path d="M150.18 18.0586H154.62L160.85 33.6586H156.12L154.96 30.6586H149.85L148.66 33.6586H143.93L150.18 18.0586ZM153.89 27.1786L152.39 22.8086L150.9 27.1786H153.89Z" fill="white"/>
<path d="M166.76 27.7186L161.07 18.0586H166L169.08 23.4286L172.36 18.0586H177.27L171.38 27.7186V33.6586H166.76V27.7186Z" fill="white"/>
<path d="M188 18.0586H192.62V23.7886H197.81V18.0586H202.43V33.6586H197.8V27.6586H192.61V33.6586H188V18.0586Z" fill="white"/>
<path d="M209 33.0011C207.757 32.3407 206.719 31.3514 206 30.1411C205.254 28.8579 204.874 27.3951 204.9 25.9111C204.872 24.4238 205.253 22.9574 206 21.6711C206.713 20.4509 207.752 19.4535 209 18.7911C210.328 18.1059 211.806 17.7623 213.3 17.7911C214.785 17.7592 216.254 18.1032 217.57 18.7911C218.819 19.4526 219.858 20.4502 220.57 21.6711C221.325 22.9546 221.709 24.4223 221.68 25.9111C221.71 27.3968 221.326 28.8616 220.57 30.1411C219.852 31.3517 218.814 32.3411 217.57 33.0011C216.254 33.689 214.785 34.033 213.3 34.0011C211.806 34.0299 210.328 33.6863 209 33.0011ZM215.16 29.2411C215.719 28.9393 216.18 28.485 216.49 27.9311C216.82 27.3168 216.989 26.6285 216.98 25.9311C217.021 25.4203 216.956 24.9065 216.787 24.4226C216.618 23.9387 216.35 23.4954 216 23.1211C215.65 22.7882 215.237 22.5284 214.786 22.3567C214.334 22.185 213.853 22.1049 213.37 22.1211C212.881 22.1035 212.393 22.1827 211.935 22.3544C211.477 22.526 211.057 22.7866 210.7 23.1211C210.342 23.4806 210.063 23.9109 209.88 24.3844C209.698 24.8579 209.616 25.3642 209.64 25.8711C209.626 26.5691 209.795 27.2586 210.13 27.8711C210.441 28.4277 210.907 28.8826 211.47 29.1811C212.054 29.4945 212.708 29.6529 213.37 29.6411C214.001 29.6481 214.623 29.4969 215.18 29.2011L215.16 29.2411Z" fill="white"/>
<path d="M227.26 33.0786C226.214 32.5026 225.369 31.6196 224.84 30.5486C224.295 29.3999 224.024 28.14 224.05 26.8686V18.0586H228.67V26.8286C228.615 27.6087 228.858 28.3806 229.35 28.9886C229.907 29.4666 230.616 29.7295 231.35 29.7295C232.084 29.7295 232.793 29.4666 233.35 28.9886C233.842 28.3806 234.085 27.6087 234.03 26.8286V18.0586H238.65V26.8686C238.672 28.1407 238.399 29.4006 237.85 30.5486C237.327 31.6237 236.481 32.5084 235.43 33.0786C234.152 33.6782 232.757 33.989 231.345 33.989C229.933 33.989 228.538 33.6782 227.26 33.0786Z" fill="white"/>
<path d="M243.44 33.6901C242.594 33.5395 241.773 33.2737 241 32.9001V28.8101C241.814 29.2507 242.681 29.5867 243.58 29.8101C244.407 30.021 245.256 30.1318 246.11 30.1401C247.26 30.1401 247.83 29.8401 247.83 29.2301C247.834 28.9844 247.74 28.7471 247.57 28.5701C247.349 28.3444 247.088 28.1614 246.8 28.0301C246.46 27.8601 245.92 27.6101 245.17 27.2801C243.974 26.8456 242.891 26.1485 242 25.2401C241.326 24.4775 240.969 23.487 241 22.4701C240.985 21.5885 241.255 20.7257 241.77 20.0101C242.341 19.2499 243.114 18.6645 244 18.3201C245.011 17.9042 246.097 17.7 247.19 17.7201C248.066 17.7102 248.94 17.7907 249.8 17.9601C250.565 18.1128 251.307 18.3614 252.01 18.7001V22.6501C250.791 21.9555 249.413 21.5869 248.01 21.5801C247.52 21.5611 247.032 21.6498 246.58 21.8401C246.425 21.8956 246.291 21.9973 246.197 22.1315C246.102 22.2657 246.051 22.4258 246.05 22.5901C246.05 22.7531 246.095 22.913 246.179 23.0523C246.264 23.1916 246.385 23.305 246.53 23.3801C247.109 23.7067 247.715 23.9843 248.34 24.2101L248.83 24.4201C249.697 24.7431 250.52 25.1731 251.28 25.7001C251.812 26.0763 252.239 26.5824 252.52 27.1701C252.793 27.8392 252.922 28.5579 252.9 29.2801C252.929 29.9437 252.798 30.6045 252.517 31.2067C252.237 31.8089 251.816 32.3348 251.29 32.7401C249.86 33.6751 248.164 34.1175 246.46 34.0001C245.446 33.9951 244.434 33.8912 243.44 33.6901Z" fill="white"/>
<path d="M255.36 18.0586H266.68V21.9386H260V24.0786H264.82V27.6286H260V29.7686H266.7V33.6586H255.36V18.0586Z" fill="white"/>
<path d="M68.86 47.1583H64V45.2383H76V47.1583H71.16V60.8383H68.86V47.1583Z" fill="white"/>
<path d="M79.1201 45.2383H81.4001V51.9283H89.5501V45.2383H91.8201V60.8383H89.5501V53.8383H81.4001V60.8383H79.1201V45.2383Z" fill="white"/>
<path d="M95.8401 45.2383H106.13V47.1583H98.1301V52.0883H104.13V53.9983H98.1301V58.9483H106.13V60.8483H95.8401V45.2383Z" fill="white"/>
<path d="M120.64 60.9393C119.905 60.8223 119.188 60.607 118.51 60.2993V58.2993C119.957 58.9713 121.535 59.3129 123.13 59.2993C125.45 59.2993 126.61 58.5193 126.61 56.9593C126.636 56.4983 126.502 56.0425 126.23 55.6693C125.939 55.3013 125.566 55.0068 125.14 54.8093C124.67 54.5593 123.89 54.2193 122.82 53.8093C121.624 53.382 120.536 52.6996 119.63 51.8093C118.959 51.0731 118.601 50.1049 118.63 49.1093C118.615 48.3298 118.85 47.5661 119.3 46.9293C119.774 46.2747 120.422 45.7656 121.17 45.4593C122.063 45.0747 123.028 44.8839 124 44.8993C124.771 44.8942 125.541 44.9612 126.3 45.0993C126.988 45.2451 127.658 45.4629 128.3 45.7493V47.7493C127.067 47.184 125.727 46.8874 124.37 46.8793C123.511 46.8243 122.654 47.0262 121.91 47.4593C121.639 47.6378 121.419 47.8837 121.271 48.173C121.124 48.4624 121.055 48.785 121.07 49.1093C121.056 49.5503 121.182 49.9843 121.43 50.3493C121.727 50.7227 122.103 51.0265 122.53 51.2393C123.01 51.4993 123.73 51.8193 124.68 52.2393C125.548 52.5745 126.385 52.9861 127.18 53.4693C127.752 53.8177 128.23 54.3021 128.57 54.8793C128.909 55.5222 129.075 56.2427 129.05 56.9693C129.08 57.5723 128.963 58.1736 128.711 58.722C128.459 59.2704 128.077 59.7497 127.6 60.1193C126.333 60.946 124.83 61.3358 123.32 61.2293C122.42 61.2151 121.523 61.118 120.64 60.9393Z" fill="white"/>
<path d="M136.17 60.1581C134.935 59.4997 133.912 58.5045 133.22 57.2881C132.518 55.9851 132.151 54.5282 132.151 53.0481C132.151 51.5681 132.518 50.1112 133.22 48.8081C133.918 47.5934 134.939 46.5963 136.17 45.9281C137.465 45.2517 138.904 44.8984 140.365 44.8984C141.826 44.8984 143.265 45.2517 144.56 45.9281C145.788 46.5969 146.806 47.5941 147.5 48.8081C148.202 50.1112 148.569 51.5681 148.569 53.0481C148.569 54.5282 148.202 55.9851 147.5 57.2881C146.811 58.5038 145.792 59.4991 144.56 60.1581C143.261 60.8218 141.824 61.1678 140.365 61.1678C138.907 61.1678 137.469 60.8218 136.17 60.1581ZM143.36 58.3681C144.255 57.8759 144.994 57.1411 145.49 56.2481C146.035 55.2714 146.308 54.1663 146.28 53.0481C146.302 51.9395 146.037 50.844 145.51 49.8681C145.016 48.9804 144.285 48.2467 143.4 47.7481C142.483 47.2403 141.448 46.9817 140.4 46.9981C139.354 46.9894 138.322 47.2439 137.4 47.7381C136.502 48.2297 135.76 48.9645 135.26 49.8581C134.717 50.8321 134.445 51.9334 134.47 53.0481C134.444 54.1648 134.713 55.2686 135.25 56.2481C135.746 57.1411 136.485 57.8759 137.38 58.3681C138.303 58.861 139.334 59.1188 140.38 59.1188C141.427 59.1188 142.457 58.861 143.38 58.3681H143.36Z" fill="white"/>
<path d="M152.14 45.2383H162.43V47.1583H154.43V52.1583H160.43V53.9683H154.43V60.8683H152.15L152.14 45.2383Z" fill="white"/>
<path d="M169.51 47.1583H164.66V45.2383H176.66V47.1583H171.82V60.8383H169.52L169.51 47.1583Z" fill="white"/>
<path d="M179.33 45.2383H181.69L185.17 57.0883L188.61 45.2383H190.4L193.81 57.0883L197.29 45.2383H199.66L195.1 60.8383H192.94L189.48 49.0483L186 60.8383H183.84L179.33 45.2383Z" fill="white"/>
<path d="M209 45.2383H211.19L217.41 60.8383H215.1L213.54 56.9983H206.64L205.13 60.8783H202.78L209 45.2383ZM212.91 55.0583L210.09 47.7583L207.28 55.0583H212.91Z" fill="white"/>
<path d="M221 45.2392H227.27C228.655 45.1458 230.025 45.5738 231.11 46.4392C231.579 46.8992 231.94 47.4564 232.17 48.0715C232.4 48.6866 232.492 49.3446 232.44 49.9992C232.475 51.0442 232.154 52.0701 231.53 52.9092C230.88 53.7328 229.965 54.3053 228.94 54.5292L232.37 60.8692H230L226.67 54.7092H223.26V60.8692H221V45.2392ZM226.89 52.7592C227.74 52.8058 228.58 52.5587 229.27 52.0592C229.55 51.7804 229.772 51.4493 229.923 51.0846C230.074 50.72 230.152 50.329 230.152 49.9342C230.152 49.5393 230.074 49.1484 229.923 48.7837C229.772 48.419 229.55 48.0879 229.27 47.8092C228.564 47.333 227.72 47.1044 226.87 47.1592H223.26V52.7592H226.89Z" fill="white"/>
<path d="M236 45.2383H246.3V47.1583H238.3V52.0883H244.3V53.9983H238.3V58.9483H246.3V60.8483H236V45.2383Z" fill="white"/>
<path d="M259.13 45.2383H261.41V51.9283H269.55V45.2383H271.83V60.8383H269.55V53.8383H261.41V60.8383H259.13V45.2383Z" fill="white"/>
<path d="M279.42 60.1581C278.187 59.4966 277.165 58.5022 276.47 57.2881C275.768 55.9851 275.401 54.5282 275.401 53.0481C275.401 51.5681 275.768 50.1112 276.47 48.8081C277.17 47.5956 278.191 46.5993 279.42 45.9281C280.715 45.2517 282.154 44.8984 283.615 44.8984C285.076 44.8984 286.515 45.2517 287.81 45.9281C289.039 46.5993 290.06 47.5956 290.76 48.8081C291.462 50.1112 291.829 51.5681 291.829 53.0481C291.829 54.5282 291.462 55.9851 290.76 57.2881C290.065 58.5022 289.043 59.4966 287.81 60.1581C286.511 60.8218 285.074 61.1678 283.615 61.1678C282.157 61.1678 280.719 60.8218 279.42 60.1581ZM286.62 58.3681C287.515 57.8759 288.254 57.1411 288.75 56.2481C289.287 55.2686 289.556 54.1648 289.53 53.0481C289.552 51.9395 289.287 50.844 288.76 49.8681C288.269 48.9782 287.538 48.2438 286.65 47.7481C285.733 47.2403 284.698 46.9817 283.65 46.9981C282.604 46.9903 281.573 47.2447 280.65 47.7381C279.752 48.2297 279.01 48.9645 278.51 49.8581C277.967 50.8321 277.695 51.9334 277.72 53.0481C277.694 54.1648 277.963 55.2686 278.5 56.2481C278.996 57.1411 279.735 57.8759 280.63 58.3681C281.554 58.8585 282.584 59.1148 283.63 59.1148C284.676 59.1148 285.706 58.8585 286.63 58.3681H286.62Z" fill="white"/>
<path d="M296.92 59.5283C296.356 58.9229 295.92 58.2093 295.64 57.4306C295.36 56.6519 295.241 55.8244 295.29 54.9983V45.2383H297.56V55.0983C297.521 55.6494 297.6 56.2026 297.793 56.7202C297.987 57.2379 298.289 57.7079 298.68 58.0983C299.537 58.8071 300.63 59.1645 301.74 59.0983C302.83 59.1531 303.901 58.7962 304.74 58.0983C305.129 57.7064 305.43 57.2361 305.623 56.7189C305.816 56.2016 305.897 55.6492 305.86 55.0983V45.2383H308.13V54.9983C308.176 55.821 308.055 56.6446 307.775 57.4196C307.495 58.1946 307.061 58.905 306.5 59.5083C305.125 60.5746 303.435 61.1533 301.695 61.1533C299.955 61.1533 298.265 60.5746 296.89 59.5083L296.92 59.5283Z" fill="white"/>
<path d="M313.75 60.9407C313.015 60.8237 312.298 60.6084 311.62 60.3007V58.3007C313.067 58.9727 314.645 59.3143 316.24 59.3007C318.56 59.3007 319.72 58.5207 319.72 56.9607C319.746 56.4998 319.612 56.044 319.34 55.6707C319.049 55.3028 318.676 55.0082 318.25 54.8107C317.77 54.5607 317 54.2207 315.93 53.8107C314.734 53.3834 313.646 52.701 312.74 51.8107C312.069 51.0745 311.711 50.1064 311.74 49.1107C311.726 48.3312 311.96 47.5675 312.41 46.9307C312.884 46.2761 313.532 45.767 314.28 45.4607C315.157 45.0947 316.1 44.9142 317.05 44.9307C317.821 44.9257 318.591 44.9926 319.35 45.1307C320.038 45.2765 320.708 45.4944 321.35 45.7807V47.7807C320.117 47.2154 318.777 46.9188 317.42 46.9107C316.561 46.8557 315.704 47.0576 314.96 47.4907C314.688 47.6687 314.466 47.9143 314.317 48.2035C314.168 48.4927 314.097 48.8157 314.11 49.1407C314.099 49.5828 314.229 50.0169 314.48 50.3807C314.777 50.7541 315.153 51.0579 315.58 51.2707C316.06 51.5307 316.78 51.8507 317.73 52.2707C318.598 52.6059 319.435 53.0175 320.23 53.5007C320.802 53.8491 321.28 54.3335 321.62 54.9107C321.96 55.5536 322.125 56.2741 322.1 57.0007C322.13 57.6037 322.014 58.205 321.761 58.7534C321.509 59.3018 321.128 59.7812 320.65 60.1507C319.383 60.9775 317.88 61.3673 316.37 61.2607C315.489 61.233 314.612 61.1259 313.75 60.9407Z" fill="white"/>
<path d="M325.7 45.2383H336V47.1583H328V52.0883H334V53.9983H328V58.9483H336V60.8483H325.7V45.2383Z" fill="white"/>
</svg>
